<svg width="11" height="18" viewBox="0 0 11 18" fill="none" xmlns="http://www.w3.org/2000/svg">
<path d="M8.79865 8.99901L1.25905 1.90555C1.08836 1.74492 0.992331 1.52692 0.992096 1.2995C0.991862 1.07208 1.08744 0.853883 1.2578 0.6929C1.42816 0.531916 1.65936 0.441338 1.90052 0.441089C2.14168 0.440841 2.37306 0.530942 2.54375 0.691574L10.7251 8.39069C10.8098 8.47016 10.877 8.56459 10.9229 8.66859C10.9688 8.77259 10.9925 8.8841 10.9926 8.99674C10.9927 9.10939 10.9692 9.22095 10.9236 9.32504C10.8779 9.42913 10.8109 9.52371 10.7264 9.60335L2.5609 17.3193C2.39054 17.4803 2.15935 17.5709 1.91818 17.5711C1.67702 17.5714 1.44564 17.4813 1.27495 17.3206C1.10425 17.16 1.00823 16.942 1.00799 16.7146C1.00776 16.4872 1.10333 16.269 1.2737 16.108L8.79865 8.99901Z" fill="#AFAEAE"/>
</svg>
