<svg width="33" height="33" viewBox="0 0 33 33" fill="none" xmlns="http://www.w3.org/2000/svg">
<path d="M16.5 0C7.392 0 0 7.392 0 16.5C0 25.608 7.392 33 16.5 33C25.608 33 33 25.608 33 16.5C33 7.392 25.608 0 16.5 0ZM18.15 28.05H14.85V24.75H18.15V28.05ZM21.5655 15.2625L20.0805 16.7805C19.2555 17.622 18.6615 18.381 18.3645 19.569C18.2325 20.097 18.15 20.691 18.15 21.45H14.85V20.625C14.849 19.758 15.0191 18.8993 15.3503 18.098C15.6816 17.2968 16.1676 16.5687 16.7805 15.9555L18.8265 13.8765C19.5855 13.1505 19.9485 12.0615 19.734 10.9065C19.6196 10.316 19.3452 9.76828 18.9408 9.32309C18.5363 8.87791 18.0173 8.55237 17.4405 8.382C15.609 7.8705 13.9095 8.91 13.365 10.4775C13.167 11.088 12.6555 11.55 12.012 11.55H11.517C10.56 11.55 9.9 10.626 10.164 9.702C10.5179 8.49828 11.2069 7.42006 12.1506 6.59324C13.0943 5.76641 14.2537 5.2251 15.4935 5.0325C18.0015 4.6365 20.394 5.94 21.879 8.0025C23.826 10.692 23.2485 13.5795 21.5655 15.2625Z" fill="black"/>
</svg>
